# AST/ASF file generated using VICON BodyLanguage
# -----------------------------------------------
:version 1.10
:name VICON
:units
  mass 1.0
  length 0.45
  angle deg
:documentation
   .ast/.asf automatically generated from VICON data using
   VICON BodyBuilder and BodyLanguage model FoxedUp or BRILLIANT.MOD
:root
   order TX TY TZ RX RY RZ
   axis XYZ
   position 0 0 0  
   orientation 0 0 0 
:bonedata
  begin
     id 1 
     name lhipjoint
     direction 0.440178 -0.822639 0.359871 
     length 2.53113 
     axis 0 0 0  XYZ
  end
  begin
     id 2 
     name lfemur
     direction 0.34202 -0.939693 0  
     length 7.88132  
     axis 0 0 20  XYZ
    dof rx ry rz
    limits (-160.0 20.0)
           (-70.0 70.0)
           (-60.0 70.0)
  end
  begin
     id 3 
     name ltibia
     direction 0.34202 -0.939693 0   
     length 8.43783   
     axis 0 0 20   XYZ
    dof rx
    limits (-10.0 170.0)
  end
  begin
     id 4 
     name lfoot
     direction 0.0886351 -0.243523 0.965837   
     length 2.63414   
     axis -90 7.62852e-016 20   XYZ
    dof rx rz
    limits (-45.0 90.0)
           (-70.0 20.0)
  end
  begin
     id 5 
     name ltoes
     direction 1.53703e-011 -4.21717e-011 1   
     length 1.31427   
     axis -90 7.62852e-016 20   XYZ
    dof rx
    limits (-90.0 20.0)
  end
  begin
     id 6 
     name rhipjoint
     direction -0.399779 -0.839773 0.367367   
     length 2.47948  
     axis 0 0 0  XYZ 
  end
  begin
     id 7 
     name rfemur
     direction -0.34202 -0.939693 0   
     length 7.74806   
     axis 0 0 -20   XYZ
    dof rx ry rz
    limits (-160.0 20.0)
           (-70.0 70.0)
           (-70.0 60.0)
  end
  begin
     id 8 
     name rtibia
     direction -0.34202 -0.939693 0   
     length 8.74432   
     axis 0 0 -20   XYZ
    dof rx
    limits (-10.0 170.0)
 end
 begin
     id 9 
     name rfoot
     direction -0.108514 -0.298139 0.948334   
     length 2.66102  
     axis -90 -7.62852e-016 -20   XYZ
    dof rx rz
    limits (-45.0 90.0)
           (-20.0 70.0)
  end
  begin
     id 10 
     name rtoes
     direction -1.53392e-011 -4.22077e-011 1   
     length 1.31983   
     axis -90 -7.62852e-016 -20   XYZ
    dof rx
    limits (-90.0 20.0)
  end
  begin
     id 11 
     name lowerback
     direction 0.0113257 0.999866 0.0118602   
     length 2.58694   
     axis 0 0 0   XYZ
    dof rx ry rz
    limits (-20.0 45.0)
           (-30.0 30.0)
           (-30.0 30.0)
  end
  begin
     id 12 
     name upperback
     direction -0.0164747 0.995193 -0.0965375   
     length 2.52368   
     axis 0 0 0   XYZ
    dof rx ry rz
    limits (-20.0 45.0)
           (-30.0 30.0)
           (-30.0 30.0)
  end
  begin
     id 13 
     name thorax
     direction -0.0194301 0.99433 -0.104552   
     length 2.56099   
     axis 0 0 0   XYZ
    dof rx ry rz
    limits (-20.0 45.0)
           (-30.0 30.0)
           (-30.0 30.0)
  end
  begin
     id 14 
     name lowerneck
     direction 0.0148543 0.995587 -0.092657   
     length 1.71582   
     axis 0 0 0   XYZ
    dof rx ry rz
    limits (-20.0 45.0)
           (-30.0 30.0)
           (-30.0 30.0)
  end
  begin
     id 15 
     name upperneck
     direction -0.0135467 0.993656 -0.111639   
     length 1.68937   
     axis 0 0 0   XYZ
    dof rx ry rz
    limits (-20.0 45.0)
           (-30.0 30.0)
           (-30.0 30.0)
  end
  begin
     id 16
     name head
     direction -0.00615349 0.999547 -0.029448  
     length 1.7462  
     axis 0 0 0   XYZ
    dof rx ry rz
    limits (-20.0 45.0)
           (-30.0 30.0)
           (-30.0 30.0)
  end
  begin
     id 17 
     name lclavicle
     direction 0.988267 0.149885 0.0293713  
     length 4.47222  
     axis 0 0 0   XYZ
    dof ry rz
    limits (-20.0 10.0)
           (0.0 20.0)
  end
  begin
     id 18 
     name lhumerus
     direction 1 -4.48986e-011 -1.14833e-027   
     length 5.37148   
     axis 180 -30 -90   XYZ
    dof rx ry rz
    limits (-60.0 90.0)
           (-90.0 90.0)
           (-90.0 90.0)
  end
  begin
     id 19
     name lradius
     direction 0.999998 0.00170963 -0.000987055   
     length 3.94212   
     axis 180 -30 -90   XYZ
    dof rx
    limits (-10.0 170.0)
  end
  begin
     id 20
     name lwrist
     direction 0.999998 7.53149e-005 -0.00194706   
     length 1.97106   
     axis 4.65056e-015 90 90   XYZ
    dof ry
    limits (-180.0 0.0)
 end
  begin
     id 21 
     name lhand
     direction 1 -4.48973e-011 -1.31746e-026   
     length 1.17917   
     axis 8.4065e-015 90 90   XYZ
    dof rx rz
    limits (-90.0 90.0)
           (-45.0 45.0)
  end
  begin
     id 22 
     name lfingers
     direction 1 -4.49107e-011 -2.63492e-026   
     length 0.950679   
     axis 1.6813e-014 90 90   XYZ
    dof rx
    limits (0.0 90.0)
  end
  begin
     id 23
     name lthumb
     direction 0.707107 -6.35048e-011 0.707107   
     length 1.36499   
     axis -90 45 2.85299e-015   XYZ
    dof rx rz
    limits (-45.0 45.0)
           (-45.0 45.0)
  end
  begin
     id 24 
     name rclavicle
     direction -0.996699 0.0642895 -0.0495725   
     length 4.62611  
     axis 0 0 0   XYZ 
    dof ry rz
    limits (-10.0 20.0)
           (-20.0 0.0)
  end
  begin
     id 25 
     name rhumerus
     direction -1 -4.48919e-011 -2.41059e-027  
     length 5.4981   
     axis 180 30 90   XYZ
    dof rx ry rz
    limits (-90.0 60.0)
           (-90.0 90.0)
           (-90.0 90.0)
  end
  begin
     id 26 
     name rradius
     direction -0.999999 0.00118101 -0.000681858   
     length 3.48381   
     axis 180 30 90   XYZ
    dof rx
    limits (-10.0 170.0)
  end
  begin
     id 27 
     name rwrist
     direction -0.999999 0.000321823 -0.00132288   
     length 1.7419   
     axis 4.65056e-015 -90 -90   XYZ
    dof ry
    limits (-180.0 0.0)
  end
  begin
     id 28
     name rhand
     direction -1 -4.49022e-011 -1.31746e-026   
     length 1.34932   
     axis 8.4065e-015 -90 -90   XYZ
    dof rx rz
    limits (-90.0 90.0)
           (-45.0 45.0)
  end
  begin
     id 29
     name rfingers
     direction -1 -4.49178e-011 -2.63492e-026   
     length 1.08785   
     axis 1.6813e-014 -90 -90   XYZ
    dof rx
    limits (0.0 90.0)
  end
  begin
     id 30
     name rthumb
     direction -0.707107 -6.34713e-011 0.707107   
     length 1.56195   
     axis -90 -45 -2.85299e-015   XYZ
    dof rx rz
    limits (-45.0 45.0)
           (-45.0 45.0)
  end
:hierarchy
  begin
    root lhipjoint rhipjoint lowerback
    lhipjoint lfemur
    lfemur ltibia
    ltibia lfoot
    lfoot ltoes
    rhipjoint rfemur
    rfemur rtibia
    rtibia rfoot
    rfoot rtoes
    lowerback upperback
    upperback thorax
    thorax lowerneck lclavicle rclavicle
    lowerneck upperneck
    upperneck head
    lclavicle lhumerus
    lhumerus lradius
    lradius lwrist
    lwrist lhand lthumb
    lhand lfingers
    rclavicle rhumerus
    rhumerus rradius
    rradius rwrist
    rwrist rhand rthumb
    rhand rfingers
  end

#!OML:ASF X:\für Bonn\!DataBase\2005_08_10_Bjorn_Final\c3d\bjorn.ASF
:FULLY-SPECIFIED
:DEGREES
1
root 0.772318 19.3458 5.3811 -2341.22 -10.826 177.258
lowerback 8.1103 4.5101 -7.08111
upperback 15.4941 3.36277 -4.15302
thorax 12.0956 -0.0616685 -0.836287
lowerneck -1.93936 -0.619049 -1.66105
upperneck 27.1555 -3.52071 1.20501
head 8.82212 -2.4893 0.294934
rclavicle -7.15625e-015 4.45278e-014
rhumerus -381.834 -23.6413 272.483
rradius 36.9222
rwrist -17.844
rhand -18.7629 4.02436
rfingers 7.12502
rthumb 7.53399 -25.8215
lclavicle -7.15625e-015 4.45278e-014
lhumerus -8.61717 7.6357 75.2508
lradius 26.9712
lwrist -6.96016
lhand -30.6699 -5.53635
lfingers 7.12502
lthumb -3.96437 744.407
rfemur -15.0906 -3.9921 9.8753
rtibia 43.5291
rfoot -13.082 21.1654
rtoes 3.09898
lfemur 178.059 177.229 165.242
ltibia 15.0098
lfoot -6.79267 -5.11276
ltoes -14.6399
2
root 0.740015 19.3477 5.40701 -2341.19 -10.1104 177.248
lowerback 8.08442 4.49898 -6.98828
upperback 15.5445 3.32114 -4.13211
thorax 12.1758 -0.0882801 -0.869159
lowerneck -2.10026 -0.639045 -1.74146
upperneck 27.1506 -3.54312 1.22028
head 8.85183 -2.50458 0.309483
rclavicle -4.77083e-014 9.22361e-014
rhumerus -381.683 -23.6064 272.381
rradius 36.9876
rwrist -18.0407
rhand -18.7451 4.02569
rfingers 7.12502
rthumb 7.55117 -25.8195
lclavicle -4.77083e-014 9.22361e-014
lhumerus -8.68503 7.11291 75.1931
lradius 27.625
lwrist -6.45924
lhand -30.7221 -5.87148
lfingers 7.12502
lthumb -4.01476 744.07
rfemur -15.246 -4.5732 9.88359
rtibia 43.3364
rfoot -13.0824 21.051
rtoes 3.29793
lfemur 178.023 176.958 165.122
ltibia 15.1513
lfoot -6.98015 -4.76047
ltoes -14.4336
3
root 0.709677 19.3492 5.43276 -2341.17 -9.43827 177.222
lowerback 8.12523 4.48699 -6.87047
upperback 15.5893 3.26927 -4.12977
thorax 12.2126 -0.115303 -0.937455
lowerneck -2.26138 -0.671598 -1.84185
upperneck 27.1746 -3.60539 1.30838
head 8.89433 -2.53489 0.34844
rclavicle -3.18055e-015 7.31528e-014
rhumerus -381.567 -23.6421 272.256
rradius 37.0983
rwrist -18.0779
rhand -18.7094 3.96855
rfingers 7.12502
rthumb 7.58566 -25.8754
lclavicle -3.18055e-015 7.31528e-014
lhumerus -8.77651 6.47618 75.0976
lradius 28.2784
lwrist -6.01036
lhand -30.7077 -6.15283
lfingers 7.12502
lthumb -4.00084 743.789
rfemur -15.3606 -5.15788 9.87374
rtibia 43.1166
rfoot -13.1569 20.8794
rtoes 3.34819
lfemur 178.005 176.681 164.995
ltibia 15.2848
lfoot -7.11973 -4.46746
ltoes -14.2432
4
root 0.680361 19.3504 5.45848 -2341.14 -8.79407 177.189
lowerback 8.16681 4.45193 -6.75713
upperback 15.6255 3.18873 -4.1192
thorax 12.2383 -0.155539 -0.993912
lowerneck -2.48138 -0.690418 -2.01264
upperneck 27.3024 -3.66773 1.43715
head 8.98641 -2.57157 0.410745
rclavicle -2.62396e-014 -3.18055e-014
rhumerus -381.45 -23.6218 272.144
rradius 37.2106
rwrist -18.0661
rhand -18.6649 3.98462
rfingers 7.12502
rthumb 7.62862 -25.8578
lclavicle -2.62396e-014 -3.18055e-014
lhumerus -8.87677 5.95495 75.032
lradius 28.8903
lwrist -5.71683
lhand -30.6045 -6.45122
lfingers 7.12502
lthumb -3.90122 743.493
rfemur -15.4856 -5.70503 9.8632
rtibia 42.8734
rfoot -13.2711 20.6134
rtoes 3.41266
lfemur 177.959 176.439 164.861
ltibia 15.4092
lfoot -7.24079 -4.1621
ltoes -13.8337
5
root 0.652322 19.3517 5.48307 -2341.13 -8.19265 177.188
lowerback 8.26295 4.39599 -6.59093
upperback 15.6438 3.07836 -4.10145
thorax 12.2123 -0.201197 -1.07106
lowerneck -2.66626 -0.704771 -2.22604
upperneck 27.4537 -3.741 1.61088
head 9.08264 -2.61625 0.494845
rclavicle -2.14687e-014 8.34896e-014
rhumerus -381.385 -23.6087 272.041
rradius 37.3185
rwrist -17.9425
rhand -18.5929 3.98919
rfingers 7.12502
rthumb 7.69814 -25.8507
lclavicle -2.14687e-014 8.34896e-014
lhumerus -9.04646 5.39808 74.9562
lradius 29.4969
lwrist -5.43393
lhand -30.4156 -6.789
lfingers 7.12502
lthumb -3.71884 743.158
rfemur -15.5719 -6.18522 9.89584
rtibia 42.6057
rfoot -13.4849 20.2267
rtoes 3.31073
lfemur 177.934 176.219 164.77
ltibia 15.5172
lfoot -7.35587 -3.86503
ltoes -13.5964
6
root 0.625907 19.3539 5.506 -2341.11 -7.58925 177.145
lowerback 8.34656 4.33565 -6.49517
upperback 15.6548 2.96409 -4.05869
thorax 12.1794 -0.257433 -1.08128
lowerneck -2.74852 -0.707847 -2.35674
upperneck 27.4859 -3.76561 1.67419
head 9.11329 -2.63891 0.53438
rclavicle 1.11319e-014 1.43125e-014
rhumerus -381.319 -23.5491 271.997
rradius 37.4159
rwrist -17.732
rhand -18.4835 4.00786
rfingers 7.12502
rthumb 7.8037 -25.8281
lclavicle 1.11319e-014 1.43125e-014
lhumerus -9.25198 4.94619 74.9515
lradius 30.0932
lwrist -5.25831
lhand -30.1394 -7.11364
lfingers 7.12502
lthumb -3.45208 742.838
rfemur -15.6613 -6.60788 9.88487
rtibia 42.3205
rfoot -13.793 19.7669
rtoes 2.91375
lfemur 177.906 175.943 164.641
ltibia 15.6064
lfoot -7.42346 -3.59636
ltoes -13.2275
7
root 0.600835 19.3551 5.528 -2341.1 -7.00208 177.119
lowerback 8.45395 4.27209 -6.37605
upperback 15.6832 2.83801 -4.00444
thorax 12.1541 -0.320173 -1.09327
lowerneck -2.82992 -0.711691 -2.34241
upperneck 27.4833 -3.75838 1.57635
head 9.1252 -2.64583 0.497136
rclavicle 5.56597e-015 -5.40694e-014
rhumerus -381.242 -23.4601 271.939
rradius 37.5389
rwrist -17.4892
rhand -18.399 4.04664
rfingers 7.12502
rthumb 7.88526 -25.7863
lclavicle 5.56597e-015 -5.40694e-014
lhumerus -9.4309 4.52877 74.9522
lradius 30.652
lwrist -5.13191
lhand -29.7833 -7.4582
lfingers 7.12502
lthumb -3.10816 742.499
rfemur -15.7302 -7.03255 9.89072
rtibia 42.0212
rfoot -14.0937 19.328
rtoes 2.50157
lfemur 177.916 175.723 164.531
ltibia 15.6709
lfoot -7.4953 -3.29405
ltoes -12.8686
